<?xml version="1.0" encoding="UTF-8"?>
<!DOCTYPE svg PUBLIC "-//W3C//DTD SVG 1.1//EN" "http://www.w3.org/Graphics/SVG/1.1/DTD/svg11.dtd">
<!-- Creator: CorelDRAW -->
<svg xmlns="http://www.w3.org/2000/svg" xml:space="preserve" width="297mm" height="210mm" version="1.1" style="shape-rendering:geometricPrecision; text-rendering:geometricPrecision; image-rendering:optimizeQuality; fill-rule:evenodd; clip-rule:evenodd"
viewBox="0 0 29700 21000"
 xmlns:xlink="http://www.w3.org/1999/xlink"
 xmlns:xodm="http://www.corel.com/coreldraw/odm/2003">
 <defs>
  <style type="text/css">
   <![CDATA[
    .fil1 {fill:#6BA832}
    .fil0 {fill:#6BA832;fill-rule:nonzero}
   ]]>
  </style>
 </defs>
 <g id="Layer_x0020_1">
  <metadata id="CorelCorpID_0Corel-Layer"/>
  <g id="_2609300737280">
   <g>
    <path class="fil0" d="M25898.72 12702.51c1027.15,0 1801.48,-766.42 1801.48,-2133.32l0 -63.21c0,-1366.93 -790.12,-2117.53 -1801.48,-2117.53 -608.4,0 -1090.38,347.64 -1319.5,742.71l0 -2520.49 -1145.68 0 0 6004.93 1145.68 0 0 -655.8c213.32,426.66 679.49,742.71 1319.5,742.71z"/>
    <path class="fil0" d="M19972.79 12702.51c679.51,0 1098.29,-316.05 1311.61,-734.81l0 647.9 1137.79 0 0 -4132.33 -1137.79 0 0 2425.67c0,608.39 -379.25,908.63 -861.24,908.63 -489.87,0 -719.01,-268.64 -719.01,-829.63l0 -2504.67 -1137.77 0 0 2662.7c0,1082.47 600.49,1556.54 1406.41,1556.54z"/>
    <path class="fil0" d="M13738.74 12615.6l1145.68 0 0 -2386.17c0,-608.39 371.35,-908.65 861.22,-908.65 505.69,0 726.92,268.64 726.92,829.65l0 2465.17 1145.67 0 0 -2631.11c0,-1106.17 -576.78,-1596.04 -1390.61,-1596.04 -687.4,0 -1137.77,339.75 -1343.2,750.6l0 -2528.38 -1145.68 0 0 6004.93z"/>
   </g>
   <g>
    <path class="fil1" d="M7370.94 15879.33c2218.55,0 4123.01,-1344.81 4942.65,-3263.73l-405.89 0 0 -497.78c-237.05,331.85 -600.51,584.69 -1248.4,584.69 -750.63,0 -1382.73,-363.46 -1382.73,-1232.58 0,-963.95 884.95,-1327.41 2149.15,-1327.41l466.16 0 0 -165.93c0,-489.87 -150.12,-758.52 -671.6,-758.52 -450.37,0 -655.8,229.14 -703.21,584.7l-1082.47 0c71.11,-979.77 845.44,-1414.32 1856.79,-1414.32 441.25,0 826.85,78.21 1121.37,259.56 -756.45,-2050.75 -2728.37,-3513.08 -5041.82,-3513.08 -2384.91,0 -4406.85,1554.07 -5108.4,3704.77 336.16,-307.82 838.95,-451.25 1419.97,-451.25 1011.36,0 1730.37,410.87 1730.37,1532.84l0 2694.31 -1114.07 0 0 -497.78c-237.04,331.85 -600.5,584.69 -1248.4,584.69 -224.63,0 -438.67,-32.56 -628.31,-101.47 816.22,1926.68 2724.69,3278.29 4948.84,3278.29zm1502.67 -6392.61c-845.42,-7.91 -1335.29,268.64 -1335.29,1058.76l0 2070.12 -1145.68 0 0 -4132.33 1145.68 0 0 790.1c260.73,-553.07 663.69,-845.42 1335.29,-853.33l0 1066.68z"/>
    <path class="fil1" d="M3390.17 11904.5c505.66,0 892.83,-276.55 892.83,-734.83l0 -347.64 -442.46 0c-663.72,0 -1050.86,142.21 -1050.86,584.69 0,300.23 181.73,497.78 600.49,497.78z"/>
    <path class="fil1" d="M3816.83 10142.52l466.17 0 0 -165.93c0,-489.87 -150.12,-758.52 -671.6,-758.52 -450.37,0 -655.81,229.14 -703.22,584.7l-863.67 0c-30.19,230.51 -45.77,465.62 -45.77,704.36 0,44.24 0.54,88.35 1.59,132.34 368.07,-351.34 1016.32,-496.95 1816.5,-496.95z"/>
    <path class="fil1" d="M11449.42 10822.03c-663.71,0 -1050.86,142.21 -1050.86,584.69 0,300.23 181.73,497.78 600.49,497.78 505.67,0 892.83,-276.55 892.83,-734.83l0 -347.64 -442.46 0z"/>
   </g>
  </g>
 </g>
</svg>
